<svg width="846" height="420" viewBox="0 0 846 420" fill="none" xmlns="http://www.w3.org/2000/svg">
<path d="M21 419.001L21.3004 203.001H36C38.5639 203.001 40.6286 203.707 42.0091 204.296C43.3897 204.885 44.7703 206.259 46.1509 208.417L168 370.368C168 367.878 168 364.889 168.037 362.364C168.037 359.813 168.037 357.458 168.037 355.3V203.001H193V419.001L178.5 419.001C176.5 419.001 171 419.001 171 419.001C170 418.001 170.5 418.501 168.924 416.349L46 253.001C46 255.501 46 256.001 46 259.001C46 262.001 46 264.039 46 266.001V419.001H40H21ZM0 419.001V405.001C0 403.235 0.211096 400.982 1 400.001C2 399.001 2.42219 399.197 4 399.001L27 394.001L30 418.979L16 419.001H0ZM40 419.001L43 394.001L66 399.001C67.5778 399.197 68.7333 399.453 69.5222 400.63C70.3111 401.611 71 403.235 71 405.001V419.001H40ZM30 203.001L27 226.911L5 223.922C3.42219 223.53 1.97226 222.939 1.18336 221.957C0.394452 220.976 0 217.718 0 215.952V203.001H30ZM174.025 203.001L171 225.915L148 221.001C146.422 220.609 145.822 220.172 145.033 219.19C144.244 218.209 144 216.722 144 214.956V203.001H174.025ZM214 203.001V215.001C214 216.767 214.235 218.209 213.446 219.19C212.657 220.172 211.578 220.609 210 221.001L199 223.501L189 226.001L184.454 203.001H214Z" fill="#2B2A28"/>
<path d="M323 419.001C307.419 419.001 293.65 416.919 280.83 411.6C268.208 406.282 257.262 398.797 247.992 389.145C238.92 379.69 231.82 368.364 226.692 355.166C221.564 341.772 219 326.759 219 311.001C219 295.046 221.564 280.906 226.692 267.708C231.82 254.51 238.92 243.086 247.992 233.434C257.262 223.782 268.208 216.297 280.83 210.978C293.65 205.66 308.419 203.001 324 203.001C339.581 203.001 353.311 205.66 366.328 210.978C379.344 216.297 390.389 223.782 399.461 233.434C408.731 243.086 415.831 254.51 420.762 267.708C425.693 280.906 428 295.123 428 311.078C428 326.836 425.693 341.772 420.762 355.166C415.831 368.364 408.731 379.69 399.461 389.145C390.389 398.797 379.344 406.282 366.328 411.6C353.311 416.919 338.581 419.001 323 419.001ZM323 395.001C338.581 395.001 352.423 391.115 363.665 384.417C374.907 377.72 383.486 368.167 389.403 355.757C395.517 343.15 399 327.941 399 311.001C399 294.061 395.517 279.822 389.403 267.413C383.486 254.806 374.907 245.056 363.665 238.161C352.423 231.267 339.581 228.001 324 228.001C308.616 228.001 294.734 231.267 283.493 238.161C272.251 245.056 263.573 254.806 257.459 267.413C251.345 279.822 248 294.061 248 311.001C248 327.941 251.345 343.052 257.459 355.462C263.573 367.871 272.251 377.523 283.493 384.417C294.734 391.115 307.616 395.001 323 395.001Z" fill="#2B2A28"/>
<path d="M552.194 419.134C536.613 419.134 522.983 417.052 510.163 411.734C497.541 406.415 486.594 398.93 477.325 389.278C468.252 379.823 461.152 368.497 456.024 355.299C450.896 341.905 448.193 326.892 448.193 311.134C448.193 295.179 450.896 281.039 456.024 267.841C461.152 254.644 468.252 243.219 477.325 233.567C486.594 223.915 497.541 216.43 510.163 211.112C522.983 205.793 537.613 203.134 553.194 203.134C568.775 203.134 582.644 205.793 595.661 211.112C608.678 216.43 619.722 223.915 628.795 233.567C638.064 243.219 645.164 254.644 650.095 267.841C655.026 281.039 657.194 295.179 657.194 311.134C657.194 326.892 655.026 341.905 650.095 355.299C645.164 368.497 638.064 379.823 628.795 389.278C619.722 398.93 608.678 406.415 595.661 411.734C582.644 417.052 567.775 419.134 552.194 419.134ZM552.194 395.134C567.775 395.134 581.756 391.248 592.998 384.551C604.24 377.854 612.819 368.3 618.736 355.89C624.85 343.284 628.194 328.074 628.194 311.134C628.194 294.194 624.85 279.955 618.736 267.546C612.819 254.939 604.24 245.189 592.998 238.295C581.756 231.4 568.775 228.134 553.194 228.134C537.81 228.134 524.068 231.4 512.826 238.295C501.584 245.189 492.906 254.939 486.792 267.546C480.678 279.955 477.193 294.194 477.193 311.134C477.193 328.074 480.678 343.185 486.792 355.595C492.906 368.005 501.584 377.657 512.826 384.551C524.068 391.248 536.81 395.134 552.194 395.134Z" fill="#2B2A28"/>
<path d="M683.194 419.001V203.001H746.194C763.224 203.001 774.711 206.088 786.15 210.618C797.589 214.952 806.267 221.452 812.184 230.119C818.298 238.786 821.355 249.62 821.355 262.62C821.355 272.863 819.185 282.023 814.846 290.099C810.705 298.175 804.689 304.971 796.8 310.486C789.109 316.001 779.938 320.039 769.287 322.6C772.443 324.373 775.599 327.328 778.754 331.464L839.194 419.001L816.194 419.001C810.868 419.001 805.705 415.892 803.338 411.755L748.579 333.828C746.804 331.464 744.93 329.79 742.958 328.805C740.985 327.82 738.027 327.328 734.082 327.328L712.194 327.001V419.001H683.194ZM712.194 307.001L742.366 306.349C758.341 306.349 770.865 302.705 779.938 295.417C789.01 288.129 793.546 277.886 793.546 264.689C793.546 252.082 789.306 242.627 780.825 236.324C772.542 229.823 762.563 226.001 746.194 226.001H712.194V307.001ZM816.194 419.001L801.918 392.626L819.432 397.353L816.194 419.001ZM662.194 419.001V408.286C662.194 406.513 663.405 404.986 664.194 404.001C664.983 402.819 666.616 402.198 668.194 402.001L690.194 397.001L692.194 419.001L685.194 419.134L677.194 419.001H662.194ZM692.194 203.001L689.194 227.001L666.927 222.141C665.349 221.747 664.166 221.058 663.377 220.073C662.588 219.088 662.194 217.709 662.194 215.936V203.001H692.194ZM703.194 419.001L706.194 397.001L729.194 402.001C730.771 402.198 732.405 402.819 733.194 404.001C733.983 404.986 734.194 406.228 734.194 408.001V419.001H703.194ZM816.194 419.001L819.432 397.353L840.194 402.001C841.771 402.198 843.405 402.819 844.194 404.001C844.983 404.986 845.194 406.228 845.194 408.001V419.001L816.194 419.001Z" fill="#2B2A28"/>
<path d="M257.086 177C246.672 177 237.8 175.311 230.069 171.371C222.496 167.431 216.579 161.758 212.319 154.352C208.216 146.788 206.238 137.352 206.238 127.109V49.1093C206.238 38.7088 208.216 30.3347 212.319 22.9283C216.579 15.5219 222.496 9.84892 230.069 5.90936C237.8 1.96981 246.873 0.109253 257.286 0.109253C267.7 0.109253 276.693 2.04859 284.267 6.14573C291.84 10.0853 297.678 15.7583 301.78 23.1646C305.335 29.5829 307.578 36.6686 308.113 45.1109C308.253 47.3156 306.447 49.1093 304.238 49.1093H291.238C289.029 49.1093 287.264 47.3121 287.047 45.1136C286.286 37.3987 283.291 31.6447 278.823 27.183C273.774 21.8252 266.595 19.1463 257.286 19.1463C247.977 19.1463 240.64 21.7464 235.276 26.9466C230.069 32.1468 227.238 39.3391 227.238 49.1093V127.109C227.238 136.879 230.069 144.976 235.276 150.334C240.64 155.534 247.977 158.134 257.286 158.134C266.595 158.134 273.774 155.534 278.823 150.334C283.292 145.735 286.288 139.856 287.048 132.105C287.263 129.906 289.029 128.109 291.238 128.109H304.238C306.447 128.109 308.253 129.903 308.11 132.107C307.569 140.44 305.328 147.574 301.78 154.116C297.678 161.522 291.84 167.274 284.267 171.371C276.693 175.311 267.499 177 257.086 177Z" fill="#2B2A28"/>
<path d="M378.238 177C367.824 177 358.495 175.311 350.922 171.371C343.506 167.431 337.747 161.758 333.645 154.352C329.7 146.788 328.238 138.243 328.238 128V49C328.238 38.5996 329.7 30.3346 333.645 22.9283C337.747 15.5219 343.506 9.8489 350.922 5.90934C358.495 1.96978 367.824 0 378.238 0C388.651 0 397.231 1.96978 404.646 5.90934C412.22 9.8489 417.979 15.5219 421.923 22.9283C426.026 30.3346 428.238 38.7571 428.238 49V128C428.238 138.243 426.026 146.788 421.923 154.352C417.979 161.758 412.22 167.431 404.646 171.371C397.231 175.311 388.651 177 378.238 177ZM378.238 158C387.547 158 394.312 155.534 399.203 150.334C404.252 144.976 407.238 137.77 407.238 128V49C407.238 39.2299 404.252 32.3832 399.203 27.183C394.312 21.8252 387.547 19 378.238 19C369.087 19 361.651 21.8252 356.602 27.183C351.553 32.3832 349.238 39.2299 349.238 49V128C349.238 137.77 351.553 144.976 356.602 150.334C361.651 155.534 369.087 158 378.238 158Z" fill="#2B2A28"/>
<path d="M456.738 177C452.32 177 448.738 173.418 448.738 169V4C448.738 1.79086 450.529 0 452.738 0H494.622C505.796 0 513.979 1.65461 522.006 5.90934C530.189 10.1641 536.485 18.9887 540.892 26.7102C545.456 34.4318 547.488 43.442 547.488 54L547.738 123C547.738 133.558 545.456 142.691 540.892 150.57C536.485 158.292 530.189 167.116 522.006 171.371C513.979 175.626 504.799 177 493.624 177H456.738ZM469.238 159H493.624C504.012 159 511.697 155.928 517.52 150.097C523.501 144.267 526.738 133.4 526.738 123L526.491 54C526.491 43.7571 523.501 35.85 517.52 30.0195C511.697 24.1889 505.009 19 494.622 19H469.238V159Z" fill="#2B2A28"/>
<path d="M571.218 177C569.009 177 567.218 175.209 567.218 173V4C567.218 1.79086 569.009 0 571.218 0H656.218C658.427 0 660.218 1.79086 660.218 4V14.8944C660.218 17.1035 658.427 18.8944 656.218 18.8944H588.218V78.5608H647.218C649.427 78.5608 651.218 80.3517 651.218 82.5608V93.4552C651.218 95.6644 649.427 97.4552 647.218 97.4552H588.218V158.116H656.238C658.447 158.116 660.238 159.907 660.238 162.116V173C660.238 175.209 658.447 177 656.238 177H571.218Z" fill="#2B2A28"/>
</svg>
